<mxfile host="app.diagrams.net" modified="2021-01-28T04:03:13.967Z" agent="5.0 (Windows NT 10.0; Win64; x64) AppleWebKit/537.36 (KHTML, like Gecko) Chrome/87.0.4280.141 Safari/537.36" etag="DIfvFFSFRcu7l8ZYenDh" version="14.2.7" type="github">
  <diagram id="C5RBs43oDa-KdzZeNtuy" name="Page-1">
    <mxGraphModel dx="2545" dy="943" grid="1" gridSize="10" guides="1" tooltips="1" connect="1" arrows="1" fold="1" page="1" pageScale="1" pageWidth="827" pageHeight="1169" math="0" shadow="0">
      <root>
        <mxCell id="WIyWlLk6GJQsqaUBKTNV-0" />
        <mxCell id="WIyWlLk6GJQsqaUBKTNV-1" parent="WIyWlLk6GJQsqaUBKTNV-0" />
        <mxCell id="hwy_s0AwSxYy2SR0BnWP-0" value="18.18 DataBus" style="rounded=1;whiteSpace=wrap;html=1;" vertex="1" parent="WIyWlLk6GJQsqaUBKTNV-1">
          <mxGeometry x="360" y="320" width="120" height="60" as="geometry" />
        </mxCell>
        <mxCell id="hwy_s0AwSxYy2SR0BnWP-1" value="电子证照系统" style="rounded=1;whiteSpace=wrap;html=1;" vertex="1" parent="WIyWlLk6GJQsqaUBKTNV-1">
          <mxGeometry x="1240" y="140" width="120" height="60" as="geometry" />
        </mxCell>
        <mxCell id="hwy_s0AwSxYy2SR0BnWP-2" value="政务网系统" style="rounded=1;whiteSpace=wrap;html=1;" vertex="1" parent="WIyWlLk6GJQsqaUBKTNV-1">
          <mxGeometry x="1241" y="510" width="120" height="60" as="geometry" />
        </mxCell>
        <mxCell id="hwy_s0AwSxYy2SR0BnWP-3" value="秒批系统" style="rounded=1;whiteSpace=wrap;html=1;" vertex="1" parent="WIyWlLk6GJQsqaUBKTNV-1">
          <mxGeometry x="880" y="320" width="120" height="60" as="geometry" />
        </mxCell>
        <mxCell id="hwy_s0AwSxYy2SR0BnWP-38" value="" style="endArrow=classic;startArrow=classic;html=1;entryX=0;entryY=0.5;entryDx=0;entryDy=0;" edge="1" parent="WIyWlLk6GJQsqaUBKTNV-1" source="hwy_s0AwSxYy2SR0BnWP-54" target="hwy_s0AwSxYy2SR0BnWP-3">
          <mxGeometry width="50" height="50" relative="1" as="geometry">
            <mxPoint x="420" y="350" as="sourcePoint" />
            <mxPoint x="980" y="450" as="targetPoint" />
          </mxGeometry>
        </mxCell>
        <mxCell id="hwy_s0AwSxYy2SR0BnWP-39" value="" style="endArrow=classic;startArrow=classic;html=1;exitX=1;exitY=0.5;exitDx=0;exitDy=0;entryX=0;entryY=0.5;entryDx=0;entryDy=0;" edge="1" parent="WIyWlLk6GJQsqaUBKTNV-1" source="hwy_s0AwSxYy2SR0BnWP-3" target="hwy_s0AwSxYy2SR0BnWP-1">
          <mxGeometry width="50" height="50" relative="1" as="geometry">
            <mxPoint x="930" y="500" as="sourcePoint" />
            <mxPoint x="980" y="450" as="targetPoint" />
          </mxGeometry>
        </mxCell>
        <mxCell id="hwy_s0AwSxYy2SR0BnWP-40" value="" style="endArrow=classic;startArrow=classic;html=1;exitX=1.017;exitY=0.633;exitDx=0;exitDy=0;exitPerimeter=0;entryX=0;entryY=0.5;entryDx=0;entryDy=0;" edge="1" parent="WIyWlLk6GJQsqaUBKTNV-1" source="hwy_s0AwSxYy2SR0BnWP-3" target="hwy_s0AwSxYy2SR0BnWP-2">
          <mxGeometry width="50" height="50" relative="1" as="geometry">
            <mxPoint x="930" y="500" as="sourcePoint" />
            <mxPoint x="980" y="450" as="targetPoint" />
          </mxGeometry>
        </mxCell>
        <mxCell id="hwy_s0AwSxYy2SR0BnWP-41" value="政府PC端https://znjyz.szsti.org/" style="rounded=0;whiteSpace=wrap;html=1;fillColor=#ffffff;" vertex="1" parent="WIyWlLk6GJQsqaUBKTNV-1">
          <mxGeometry x="50" y="320" width="120" height="60" as="geometry" />
        </mxCell>
        <mxCell id="hwy_s0AwSxYy2SR0BnWP-42" value="" style="endArrow=classic;startArrow=classic;html=1;exitX=1;exitY=0.5;exitDx=0;exitDy=0;entryX=0;entryY=0.5;entryDx=0;entryDy=0;" edge="1" parent="WIyWlLk6GJQsqaUBKTNV-1" source="hwy_s0AwSxYy2SR0BnWP-41" target="hwy_s0AwSxYy2SR0BnWP-0">
          <mxGeometry width="50" height="50" relative="1" as="geometry">
            <mxPoint x="930" y="500" as="sourcePoint" />
            <mxPoint x="980" y="450" as="targetPoint" />
          </mxGeometry>
        </mxCell>
        <mxCell id="hwy_s0AwSxYy2SR0BnWP-54" value="30.15 DataBus" style="rounded=1;whiteSpace=wrap;html=1;" vertex="1" parent="WIyWlLk6GJQsqaUBKTNV-1">
          <mxGeometry x="570" y="320" width="120" height="60" as="geometry" />
        </mxCell>
        <mxCell id="hwy_s0AwSxYy2SR0BnWP-55" value="" style="endArrow=classic;startArrow=classic;html=1;entryX=0;entryY=0.5;entryDx=0;entryDy=0;" edge="1" parent="WIyWlLk6GJQsqaUBKTNV-1" source="hwy_s0AwSxYy2SR0BnWP-0" target="hwy_s0AwSxYy2SR0BnWP-54">
          <mxGeometry width="50" height="50" relative="1" as="geometry">
            <mxPoint x="330" y="350" as="sourcePoint" />
            <mxPoint x="880" y="350" as="targetPoint" />
          </mxGeometry>
        </mxCell>
        <mxCell id="hwy_s0AwSxYy2SR0BnWP-56" value="" style="whiteSpace=wrap;html=1;fillColor=none;" vertex="1" parent="WIyWlLk6GJQsqaUBKTNV-1">
          <mxGeometry x="840" y="40" width="590" height="620" as="geometry" />
        </mxCell>
        <mxCell id="hwy_s0AwSxYy2SR0BnWP-57" value="政务内网" style="text;html=1;resizable=0;autosize=1;align=center;verticalAlign=middle;points=[];fillColor=none;strokeColor=none;rounded=0;fontSize=25;" vertex="1" parent="WIyWlLk6GJQsqaUBKTNV-1">
          <mxGeometry x="1070" y="70" width="120" height="40" as="geometry" />
        </mxCell>
        <mxCell id="hwy_s0AwSxYy2SR0BnWP-59" value="" style="whiteSpace=wrap;html=1;fillColor=none;fontSize=25;" vertex="1" parent="WIyWlLk6GJQsqaUBKTNV-1">
          <mxGeometry x="-20" y="40" width="270" height="630" as="geometry" />
        </mxCell>
        <mxCell id="hwy_s0AwSxYy2SR0BnWP-60" value="网页展示" style="text;html=1;resizable=0;autosize=1;align=center;verticalAlign=middle;points=[];fillColor=none;strokeColor=none;rounded=0;fontSize=25;" vertex="1" parent="WIyWlLk6GJQsqaUBKTNV-1">
          <mxGeometry x="40" y="70" width="120" height="40" as="geometry" />
        </mxCell>
        <mxCell id="hwy_s0AwSxYy2SR0BnWP-61" value="" style="whiteSpace=wrap;html=1;fillColor=none;fontSize=25;" vertex="1" parent="WIyWlLk6GJQsqaUBKTNV-1">
          <mxGeometry x="300" y="40" width="450" height="630" as="geometry" />
        </mxCell>
        <mxCell id="hwy_s0AwSxYy2SR0BnWP-62" value="城安院网络" style="text;html=1;resizable=0;autosize=1;align=center;verticalAlign=middle;points=[];fillColor=none;strokeColor=none;rounded=0;fontSize=25;" vertex="1" parent="WIyWlLk6GJQsqaUBKTNV-1">
          <mxGeometry x="440" y="70" width="140" height="40" as="geometry" />
        </mxCell>
      </root>
    </mxGraphModel>
  </diagram>
</mxfile>
